# xmcd
#
# Track frame offsets:
#	150
#	22775
#	33100
#	45917
#	58427
#	68797
#	86650
#	98352
#	117315
#	127582
#	145942
#	155410
#	173730
#	187157
#	203157
#	214562
#	225637
#	242157
#	257865
#	270927
#	283735
#	296052
#	316662
#
# Disc length: 4386 seconds
#
# Revision: 0
# Processed by: cddbd v1.4PL0 Copyright (c) Steve Scherf et al.
# Submitted via: audiograbber 1.80.04
#
DISCID=3b112017
DTITLE=Various Artist - Road Music:  23 Truckin' Hits
DYEAR=1900
DGENRE=
TTITLE0=Red Sovine - Teddy Bear
TTITLE1=Dave Dudley - Six Days On The Road
TTITLE2=Del Reeves - Girl On The Billboard
TTITLE3=Coleman Wilson - Passing Zone Blues
TTITLE4=Dave Dudley - Truck Driving Son Of A Gun
TTITLE5=C.W. Mccall - Convoy
TTITLE6=Willis Brothers - Give Me Forty Acres
TTITLE7=T.H. Music Festival - White Knight
TTITLE8=Del Reeves - Looking At The World Through A Windsheild
TTITLE9=Minnie Pearl - Giddyup Go Answer
TTITLE10=Moore and Napier - Truck Drivin' Queen
TTITLE11=Red Sovine - Giddyup Go
TTITLE12=Tiny Harris - Endless Black Ribbon
TTITLE13=Rod Hart - C.b. Savage
TTITLE14=Jimmy Martin - Truck Drivin Man
TTITLE15=Jimmy Griggs - Overloaded Diesel
TTITLE16=Lonnie Irving - Pinball Machine
TTITLE17=Red Sovine - Phantom 309
TTITLE18=Red Sovine - Truck Drivers Prayer
TTITLE19=Claude Gray - How Fast Them Trucks Can Go
TTITLE20=Jimmy Martin - Widowmaker
TTITLE21=Red Sovine - Little Joe
TTITLE22=Red Sovine - Freightliner Fever
EXTD=
EXTT0=
EXTT1=
EXTT2=
EXTT3=
EXTT4=
EXTT5=
EXTT6=
EXTT7=
EXTT8=
EXTT9=
EXTT10=
EXTT11=
EXTT12=
EXTT13=
EXTT14=
EXTT15=
EXTT16=
EXTT17=
EXTT18=
EXTT19=
EXTT20=
EXTT21=
EXTT22=
PLAYORDER=
